<?xml version="1.0" standalone="no"?><!DOCTYPE svg PUBLIC "-//W3C//DTD SVG 1.1//EN" "http://www.w3.org/Graphics/SVG/1.1/DTD/svg11.dtd"><svg t="1606896770324" class="icon" viewBox="0 0 1024 1024" version="1.1" xmlns="http://www.w3.org/2000/svg" p-id="7294" xmlns:xlink="http://www.w3.org/1999/xlink" width="200" height="200"><defs><style type="text/css"></style></defs><path d="M563.142857 877.714286h-98.285714q-7.428571 0-12.857143-5.142857t-5.428571-13.142858v-188.571428h-164.571429q-7.428571 0-12.857143-5.142857t-5.428571-13.142857v-58.857143q0-7.428571 5.428571-12.857143t12.857143-5.428572h164.571429v-48.571428h-164.571429q-7.428571 0-12.857143-5.142857t-5.428571-13.142857V449.142857q0-7.428571 5.428571-12.857143t12.857143-5.428571h122.285714l-183.428571-330.285714q-4.571429-9.142857 0-18.285715 5.714286-9.142857 16-9.142857h110.857143q10.857143 0 16.571428 10.285714l122.857143 242.857143q10.857143 21.714286 32 71.428572 5.714286-13.714286 17.428572-38.857143t15.714285-34.857143l109.142857-240q4.571429-10.857143 16.571429-10.857143h109.142857q9.714286 0 15.428572 9.142857 5.142857 8 0.571428 17.714286l-178.857143 330.857143h122.857143q7.428571 0 12.857143 5.428571t5.428571 12.857143v59.428572q0 8-5.428571 13.142857t-12.857143 5.142857h-165.714286v48.571428h165.714286q7.428571 0 12.857143 5.428572t5.428571 12.857143v58.857143q0 8-5.428571 13.142857t-12.857143 5.142857h-165.714286v188.571428q0 7.428571-5.428571 12.857143t-12.857143 5.428572z" p-id="7295"></path></svg>